<svg width="440" height="65" viewBox="0 0 440 65" fill="none" xmlns="http://www.w3.org/2000/svg">
<g clip-path="url(#clip0_1534_35974)">
<path fill-rule="evenodd" clip-rule="evenodd" d="M38.8943 0L47.9728 6.96484V3.20853H57.4604V14.4853L76.7581 29.581C74.6969 29.581 72.5886 29.3932 70.4645 29.3932H66.594L38.8235 7.56743L17.4804 24.2361H20.3755V35.5364C29.8158 30.3636 48.6415 27.5699 61.6535 29.6906C44.602 30.922 28.2088 36.7463 14.2314 46.5392V30.301H0L38.8943 0Z" fill="#D29A3A"/>
<path fill-rule="evenodd" clip-rule="evenodd" d="M49.1135 35.9825C59.3847 32.5523 70.1739 30.9109 81.0063 31.1305C74.5596 31.9279 68.2069 33.3511 62.039 35.3799C42.639 41.7969 27.5816 53.0268 20.4699 65.0079L10.054 61.8228C17.921 51.2425 31.7511 41.6248 49.1135 35.912V35.9825Z" fill="#D29A3A"/>
<path d="M109.839 25.2848L106.865 28.1099C106.015 27.1279 104.966 26.3359 103.786 25.7856C102.606 25.2354 101.323 24.9394 100.021 24.917C99.019 24.9033 98.0246 25.0895 97.0963 25.4646C96.1681 25.8396 95.3249 26.3959 94.6164 27.1007C93.908 27.8054 93.3487 28.6442 92.9717 29.5675C92.5947 30.4909 92.4075 31.4801 92.4212 32.4766C92.4013 33.8428 92.7374 35.1908 93.3968 36.3894C94.0381 37.5333 94.993 38.4723 96.1502 39.0971C97.3536 39.7584 98.7089 40.0982 100.084 40.0831C101.251 40.0986 102.407 39.8638 103.474 39.3945C104.737 38.761 105.879 37.9136 106.849 36.8902L109.736 39.8875C108.383 41.2788 106.783 42.409 105.016 43.2212C103.419 43.8688 101.706 44.1857 99.9814 44.1525C98.4077 44.2096 96.8388 43.9476 95.3701 43.3825C93.9013 42.8175 92.5635 41.9612 91.4379 40.8657C90.3355 39.759 89.4724 38.4397 88.9015 36.989C88.3306 35.5382 88.064 33.9867 88.118 32.4297C88.0787 30.3585 88.6004 28.3149 89.6285 26.5134C90.6666 24.7599 92.1651 23.3207 93.9632 22.3502C95.8189 21.3112 97.9149 20.7717 100.044 20.785C101.885 20.7838 103.705 21.1789 105.378 21.9432C107.093 22.7196 108.615 23.8602 109.839 25.2848Z" fill="black"/>
<path d="M113.52 21.3719H117.839V29.7767H125.321V21.3719H129.624V43.636H125.321V33.8774H117.847V43.636H113.52V21.3719Z" fill="black"/>
<path d="M145.327 20.8163C146.851 20.7999 148.362 21.095 149.766 21.6832C151.171 22.2715 152.439 23.1404 153.493 24.2361C154.601 25.3217 155.476 26.6205 156.063 28.0535C156.65 29.4864 156.937 31.0234 156.907 32.5705C156.939 34.1015 156.655 35.6227 156.075 37.0411C155.495 38.4594 154.629 39.7449 153.532 40.8187C151.329 42.9854 148.35 44.1928 145.252 44.1752C142.154 44.1575 139.19 42.9165 137.011 40.7248C135.23 38.8802 134.095 36.5129 133.774 33.975C133.454 31.4371 133.966 28.864 135.233 26.6386C136.263 24.8743 137.74 23.4095 139.516 22.3906C141.293 21.3716 143.307 20.8342 145.358 20.832L145.327 20.8163ZM145.279 24.9639C144.307 24.9411 143.34 25.12 142.441 25.4892C141.541 25.8583 140.729 26.4097 140.056 27.1081C139.349 27.8317 138.798 28.6901 138.434 29.6316C138.07 30.5731 137.902 31.5782 137.94 32.5861C137.893 33.6993 138.11 34.8079 138.571 35.823C139.033 36.8381 139.727 37.7316 140.599 38.4319C141.925 39.5255 143.596 40.1185 145.319 40.1066C146.29 40.1152 147.252 39.9219 148.143 39.5392C149.034 39.1565 149.836 38.5928 150.495 37.8841C151.876 36.4311 152.646 34.5074 152.646 32.5079C152.646 30.5083 151.876 28.5846 150.495 27.1316C149.825 26.4295 149.015 25.8741 148.117 25.5009C147.219 25.1276 146.253 24.9448 145.279 24.9639Z" fill="black"/>
<path d="M160.62 21.3719H164.845V43.636H160.62V21.3719Z" fill="black"/>
<path d="M190.208 25.2848L187.226 28.1099C186.378 27.1274 185.33 26.3348 184.152 25.7845C182.974 25.2341 181.691 24.9385 180.39 24.917C179.388 24.9033 178.394 25.0895 177.465 25.4646C176.537 25.8396 175.694 26.3959 174.985 27.1007C174.277 27.8054 173.718 28.6442 173.341 29.5675C172.964 30.4909 172.777 31.4801 172.79 32.4766C172.771 33.8417 173.105 35.1888 173.758 36.3894C174.401 37.5318 175.356 38.4703 176.511 39.0971C177.715 39.7574 179.07 40.0971 180.445 40.0831C181.612 40.0996 182.768 39.8647 183.836 39.3945C185.098 38.761 186.24 37.9136 187.21 36.8902L190.098 39.8875C188.745 41.2796 187.145 42.41 185.377 43.2212C183.78 43.8682 182.067 44.185 180.343 44.1525C178.769 44.2109 177.199 43.9496 175.73 43.3845C174.262 42.8194 172.924 41.9623 171.799 40.8657C170.023 38.9641 168.893 36.5553 168.568 33.9798C168.243 31.4043 168.741 28.7924 169.99 26.5134C171.026 24.7584 172.525 23.3187 174.324 22.3502C176.177 21.3111 178.271 20.7716 180.398 20.785C182.239 20.7821 184.059 21.1773 185.731 21.9432C187.45 22.7205 188.977 23.8608 190.208 25.2848Z" fill="black"/>
<path d="M193.945 21.3719H206.162V25.5196H198.177V29.5498H206.162V33.6191H198.177V39.4492H206.162V43.6125H193.945V21.3719Z" fill="black"/>
<path d="M217.152 21.3719H221.534L227.167 37.1876L232.878 21.3719H237.252L229.165 43.636H225.058L217.152 21.3719Z" fill="black"/>
<path d="M247.487 21.3719H251.814L260.421 43.636H255.991L254.237 39.0501H245.111L243.326 43.636H238.904L247.487 21.3719ZM249.674 27.2803L246.677 34.9182H252.664L249.674 27.2803Z" fill="black"/>
<path d="M263.709 21.3719H267.973V39.5901H274.172V43.636H263.709V21.3719Z" fill="black"/>
<path d="M277.413 21.3719H281.677V39.5901H287.884V43.636H277.413V21.3719Z" fill="black"/>
<path d="M291.133 21.3719H303.351V25.5196H295.366V29.5498H303.351V33.6191H295.366V39.4492H303.351V43.6125H291.133V21.3719Z" fill="black"/>
<path d="M305.734 21.3719H310.305L314.482 29.3854L318.636 21.3719H323.152L316.599 33.9713V43.6125H312.311V33.9713L305.734 21.3719Z" fill="black"/>
<path d="M335.495 21.3718H337.729V30.7079H349.121V21.3718H351.363V43.6358H349.121V32.8912H337.729V43.6358H335.495V21.3718Z" fill="black"/>
<path d="M367.459 20.8163C369.033 20.7757 370.599 21.0537 372.063 21.6335C373.526 22.2133 374.855 23.0827 375.971 24.1891C377.609 25.8328 378.722 27.9215 379.17 30.1926C379.618 32.4637 379.381 34.8158 378.489 36.9534C377.597 39.091 376.089 40.9186 374.156 42.2064C372.223 43.4943 369.95 44.1849 367.624 44.1915C366.065 44.2261 364.516 43.9434 363.071 43.3607C361.626 42.778 360.316 41.9076 359.222 40.803C358.12 39.7408 357.25 38.4647 356.666 37.0538C356.081 35.6429 355.794 34.1275 355.823 32.6017C355.811 30.5159 356.354 28.464 357.397 26.6542C358.397 24.8686 359.865 23.3865 361.645 22.3658C363.41 21.344 365.417 20.8091 367.459 20.8163ZM367.561 22.9762C365.899 22.9737 364.268 23.4199 362.841 24.2674C361.39 25.0912 360.188 26.2888 359.363 27.7342C358.523 29.2159 358.091 30.8926 358.113 32.5939C358.106 33.831 358.346 35.0573 358.818 36.202C359.289 37.3468 359.984 38.3876 360.861 39.2646C361.738 40.1416 362.781 40.8375 363.929 41.3124C365.078 41.7872 366.309 42.0317 367.553 42.0316C369.244 42.0423 370.908 41.6077 372.375 40.7717C373.824 39.9633 375.021 38.775 375.837 37.3362C376.668 35.857 377.094 34.1866 377.072 32.4921C377.096 30.8123 376.67 29.1565 375.837 27.695C374.977 26.2711 373.763 25.0914 372.313 24.269C370.862 23.4467 369.223 23.0096 367.553 22.9996L367.561 22.9762Z" fill="black"/>
<path d="M382.862 43.6358L386.072 21.3718H386.434L395.528 39.6369L404.536 21.3718H404.898L408.115 43.6358H405.92L403.71 27.7106L395.843 43.6281H395.268L387.26 27.5854L385.065 43.6281L382.862 43.6358Z" fill="black"/>
<path d="M412.529 21.3718H425.352V23.5552H414.763V30.5278H425.257V32.7112H414.763V41.4525H425.257V43.6358H412.529V21.3718Z" fill="black"/>
<path d="M426.901 39.4883L428.805 38.3535C430.143 40.8056 431.69 42.0316 433.447 42.0316C434.183 42.0364 434.908 41.8561 435.555 41.5073C436.182 41.1929 436.706 40.707 437.066 40.1065C437.405 39.5441 437.585 38.9002 437.585 38.244C437.559 37.4499 437.284 36.6838 436.798 36.0528C435.7 34.6862 434.41 33.4843 432.967 32.4843C431.688 31.6104 430.518 30.5885 429.482 29.4401C428.716 28.4688 428.298 27.2706 428.294 26.0359C428.284 25.1076 428.526 24.1938 428.994 23.3909C429.461 22.5932 430.142 21.9403 430.961 21.5049C431.807 21.0453 432.758 20.8082 433.722 20.8162C434.76 20.8133 435.781 21.0833 436.68 21.5988C437.837 22.3512 438.83 23.328 439.599 24.4708L437.774 25.8481C437.189 24.9965 436.459 24.2524 435.618 23.6491C435.034 23.3007 434.364 23.1193 433.683 23.1248C432.869 23.0853 432.072 23.3665 431.464 23.9074C431.187 24.1638 430.968 24.4754 430.82 24.822C430.672 25.1685 430.6 25.5422 430.607 25.9186C430.607 26.4045 430.712 26.8847 430.914 27.3272C431.188 27.8865 431.564 28.3906 432.023 28.814C432.314 29.0958 433.282 29.8392 434.91 31.0366C436.444 32.0703 437.792 33.3533 438.899 34.832C439.578 35.8203 439.952 36.9844 439.976 38.1814C439.98 38.9714 439.818 39.7535 439.499 40.4773C439.181 41.2011 438.714 41.8505 438.128 42.3838C437.537 42.9648 436.835 43.422 436.063 43.7284C435.292 44.0349 434.466 44.1844 433.636 44.1681C432.322 44.1824 431.035 43.8064 429.938 43.0881C428.649 42.1494 427.607 40.9143 426.901 39.4883Z" fill="black"/>
<path fill-rule="evenodd" clip-rule="evenodd" d="M34.3472 15.6982H38.5167V19.838H34.3472V15.6982ZM40.5779 21.7866H44.7395V25.9342H40.5779V21.7866ZM34.3472 21.7866H38.5167V25.9342H34.3472V21.7866ZM40.5779 15.6982H44.7395V19.838H40.5779V15.6982Z" fill="#D29A3A"/>
</g>
<defs>
<clipPath id="clip0_1534_35974">
<rect width="440" height="65" fill="white"/>
</clipPath>
</defs>
</svg>
